<svg width="34" height="34" viewBox="0 0 34 34" fill="none" xmlns="http://www.w3.org/2000/svg">
<g clip-path="url(#clip0_773_490)">
<path d="M20.9177 9.14995L6.10353 14.2037C5.51979 14.404 5.01204 14.7795 4.6495 15.2789C4.28696 15.7784 4.08729 16.3775 4.0777 16.9946C4.0681 17.6117 4.24906 18.2167 4.5959 18.7272C4.94273 19.2377 5.43857 19.6287 6.0158 19.8471L11.5246 21.9087C11.6553 21.9611 11.7742 22.0389 11.8745 22.1378C11.9747 22.2366 12.0543 22.3545 12.1085 22.4844L14.247 27.9638C14.4295 28.4292 14.7254 28.8417 15.1078 29.1637C15.4902 29.4857 15.947 29.707 16.4367 29.8076C16.9264 29.9081 17.4335 29.8847 17.9118 29.7394C18.3902 29.5942 18.8246 29.3317 19.1757 28.9758C19.5012 28.6391 19.7472 28.2339 19.8958 27.7898L24.7413 12.9063C24.9121 12.3773 24.9326 11.8112 24.8004 11.2713C24.6682 10.7313 24.3886 10.2387 23.9928 9.84838C23.597 9.45807 23.1005 9.18541 22.5588 9.06083C22.017 8.93624 21.4513 8.96463 20.9247 9.14283L20.9177 9.14995ZM22.8348 12.2903L17.9893 27.1739C17.923 27.3667 17.7994 27.5348 17.635 27.6554C17.4706 27.776 17.2732 27.8435 17.0693 27.8488C16.8655 27.8541 16.6649 27.7969 16.4944 27.6849C16.324 27.5729 16.1918 27.4115 16.1157 27.2223L13.9701 21.7501C13.9408 21.6777 13.9073 21.6071 13.8697 21.5387L18.7074 16.6327C18.8936 16.4438 18.9972 16.1887 18.9953 15.9235C18.9934 15.6583 18.8863 15.4047 18.6975 15.2185C18.5086 15.0323 18.2535 14.9287 17.9883 14.9306C17.7231 14.9324 17.4695 15.0396 17.2833 15.2284L12.4456 20.1344C12.3766 20.0978 12.3055 20.0652 12.2328 20.0369L6.73097 17.9682C6.54073 17.8948 6.37749 17.7649 6.26314 17.5961C6.1488 17.4272 6.08881 17.2274 6.09123 17.0235C6.09365 16.8196 6.15836 16.6213 6.27667 16.4552C6.39499 16.2891 6.56126 16.1631 6.75319 16.0942L21.5674 11.0405C21.7421 10.9828 21.9294 10.9744 22.1087 11.0163C22.2879 11.0582 22.452 11.1488 22.5831 11.278C22.7141 11.4072 22.807 11.5701 22.8514 11.7487C22.8958 11.9273 22.8901 12.1147 22.8348 12.2903Z" fill="#FCFCFC"/>
</g>
<defs>
<clipPath id="clip0_773_490">
<rect width="24" height="24" fill="white" transform="translate(0 17.0891) rotate(-45.4016)"/>
</clipPath>
</defs>
</svg>
